#!OML:ASF G:\JayActor3\Patient Classification 1\Patient 1\Session 5\male.ASF
:FULLY-SPECIFIED
:DEGREES
674
root 20.6298 16.0654 -4.5441 180.953 -85.6762 -159.402
lowerback 32.1989 0.0884059 0.87756
upperback 6.50123 -0.42755 -1.03006
thorax -9.44269 -0.502274 -1.35625
lowerneck 4.03287 0.775536 1.66328
upperneck -16.9571 1.0977 0.938295
head -5.77734 0.22771 -0.03516
rclavicle 6.75868e-015 1.72943e-014
rhumerus -27.4685 4.61653 -89.6723
rradius 38.3106
rwrist -4.02856
rhand -20.2938 -7.02284
rfingers 7.12502
rthumb 6.05614 -36.9163
lclavicle 6.75868e-015 1.72943e-014
lhumerus -29.7433 -7.42803 86.883
lradius 35.0467
lwrist 24.4132
lhand -20.5394 10.4472
lfingers 7.12502
lthumb 5.81901 40.3473
rfemur -37.6943 1.69524 28.0249
rtibia 53.3566
rfoot -29.8994 -9.22159
rtoes -3.04475
lfemur -60.2252 5.36004 -25.8466
ltibia 29.3847
lfoot 17.0066 1.08447
ltoes 5.5138
675
root 20.7669 16.0758 -4.55824 181.764 -85.7312 -160.368
lowerback 32.3982 0.0466323 0.811746
upperback 6.53721 -0.512691 -1.05892
thorax -9.48498 -0.543412 -1.31887
lowerneck 4.08983 0.794589 1.67967
upperneck -17.0278 1.11658 0.873481
head -5.80874 0.239038 -0.0596523
rclavicle 1.55052e-014 2.78299e-015
rhumerus -27.2725 4.7406 -89.7516
rradius 38.4392
rwrist -4.11784
rhand -20.2427 -7.22092
rfingers 7.12502
rthumb 6.1055 -37.1129
lclavicle 1.55052e-014 2.78299e-015
lhumerus -29.693 -7.44059 86.833
lradius 35.0111
lwrist 24.3632
lhand -20.5631 10.4708
lfingers 7.12502
lthumb 5.79617 40.3715
rfemur -38.009 1.78856 28.0172
rtibia 53.2273
rfoot -29.7827 -9.36808
rtoes -2.31952
lfemur -60.2622 5.26891 -25.5203
ltibia 28.8164
lfoot 18.6655 1.29178
ltoes 5.70329
676
root 20.9023 16.0845 -4.57238 182.641 -85.8226 -161.406
lowerback 32.5775 -0.00707302 0.752254
upperback 6.583 -0.610559 -1.0829
thorax -9.50827 -0.59043 -1.27495
lowerneck 4.13997 0.807612 1.69113
upperneck -17.0793 1.1285 0.820379
head -5.83305 0.24693 -0.0792205
rclavicle -1.31198e-014 -3.65764e-014
rhumerus -27.0926 4.84411 -89.8183
rradius 38.5722
rwrist -4.21706
rhand -20.2157 -7.34648
rfingers 7.12502
rthumb 6.13162 -37.2377
lclavicle -1.31198e-014 -3.65764e-014
lhumerus -29.6359 -7.47244 86.7963
lradius 34.9713
lwrist 24.3027
lhand -20.5699 10.4988
lfingers 7.12502
lthumb 5.78959 40.3997
rfemur -38.3216 1.82229 28.0084
rtibia 53.1138
rfoot -29.688 -9.48422
rtoes -1.50297
lfemur -60.261 5.18508 -25.2026
ltibia 28.2353
lfoot 20.2693 1.38651
ltoes 5.7441
677
root 21.0359 16.09 -4.58633 183.431 -85.951 -162.356
lowerback 32.7286 -0.0772039 0.707368
upperback 6.63282 -0.722953 -1.10038
thorax -9.51592 -0.644087 -1.22666
lowerneck 4.19501 0.813371 1.71416
upperneck -17.1131 1.1334 0.775761
head -5.85273 0.250549 -0.0976464
rclavicle -7.55382e-015 1.47101e-014
rhumerus -26.9367 4.93275 -89.8773
rradius 38.6963
rwrist -4.31315
rhand -20.2086 -7.38176
rfingers 7.12502
rthumb 6.13844 -37.2728
lclavicle -7.55382e-015 1.47101e-014
lhumerus -29.5826 -7.51018 86.767
lradius 34.9285
lwrist 24.2405
lhand -20.5717 10.5024
lfingers 7.12502
lthumb 5.78782 40.4033
rfemur -38.6427 1.79478 28.0206
rtibia 53.0228
rfoot -29.6309 -9.59155
rtoes -0.6043
lfemur -60.2433 5.10871 -24.8938
ltibia 27.687
lfoot 21.7008 1.35728
ltoes 5.46023
678
root 21.1674 16.0915 -4.60043 184.112 -86.1197 -163.199
lowerback 32.857 -0.159961 0.683043
upperback 6.68456 -0.842782 -1.11066
thorax -9.51237 -0.701231 -1.17906
lowerneck 4.23647 0.811559 1.73792
upperneck -17.112 1.1311 0.750455
head -5.85929 0.250058 -0.109612
rclavicle -3.97569e-016 -2.10712e-014
rhumerus -26.8074 4.98494 -89.9215
rradius 38.8057
rwrist -4.39155
rhand -20.2307 -7.32971
rfingers 7.12502
rthumb 6.11714 -37.2214
lclavicle -3.97569e-016 -2.10712e-014
lhumerus -29.5379 -7.56894 86.7503
lradius 34.8872
lwrist 24.1827
lhand -20.5696 10.484
lfingers 7.12502
lthumb 5.78992 40.3849
rfemur -38.9673 1.70739 28.0653
rtibia 52.9604
rfoot -29.6158 -9.73102
rtoes 0.314341
lfemur -60.2248 5.04342 -24.6056
ltibia 27.2401
lfoot 22.8196 1.2752
ltoes 4.86027
679
root 21.2967 16.0883 -4.6145 184.619 -86.321 -163.86
lowerback 32.9568 -0.256045 0.678546
upperback 6.73189 -0.970502 -1.11485
thorax -9.50252 -0.761831 -1.13285
lowerneck 4.24435 0.809984 1.74515
upperneck -17.053 1.13231 0.757756
head -5.84212 0.251354 -0.108635
rclavicle 1.39149e-014 -1.19271e-015
rhumerus -26.7104 5.01477 -89.9603
rradius 38.9089
rwrist -4.46001
rhand -20.2426 -7.26602
rfingers 7.12502
rthumb 6.10557 -37.158
lclavicle 1.39149e-014 -1.19271e-015
lhumerus -29.5112 -7.63314 86.7393
lradius 34.8496
lwrist 24.1354
lhand -20.5669 10.4418
lfingers 7.12502
lthumb 5.79254 40.3426
rfemur -39.3128 1.58304 28.1445
rtibia 52.9414
rfoot -29.6449 -9.90895
rtoes 1.2322
lfemur -60.2383 4.99622 -24.3498
ltibia 26.9722
lfoot 23.5043 1.17364
ltoes 3.92717
680
root 21.4237 16.081 -4.62837 184.894 -86.5406 -164.274
lowerback 33.025 -0.357563 0.695976
upperback 6.77304 -1.09542 -1.11353
thorax -9.48699 -0.820969 -1.09383
lowerneck 4.214 0.807087 1.73429
upperneck -16.9364 1.13431 0.796915
head -5.80064 0.25322 -0.0945131
rclavicle 1.59028e-015 -2.22639e-014
rhumerus -26.643 5.01648 -89.9911
rradius 38.9983
rwrist -4.51297
rhand -20.2588 -7.19476
rfingers 7.12502
rthumb 6.09 -37.0872
lclavicle 1.59028e-015 -2.22639e-014
lhumerus -29.5005 -7.70308 86.7342
lradius 34.8151
lwrist 24.0979
lhand -20.5549 10.3944
lfingers 7.12502
lthumb 5.80411 40.2949
rfemur -39.7133 1.4518 28.2525
rtibia 53.0196
rfoot -29.7233 -10.1189
rtoes 2.11903
lfemur -60.3597 4.96238 -24.1131
ltibia 27.0679
lfoot 23.6062 1.08188
ltoes 2.77066
681
root 21.5488 16.07 -4.6417 184.901 -86.7648 -164.406
lowerback 33.0668 -0.460195 0.734417
upperback 6.80719 -1.21292 -1.10915
thorax -9.46892 -0.876579 -1.06583
lowerneck 4.17418 0.796881 1.72799
upperneck -16.8015 1.1282 0.847026
head -5.75188 0.250482 -0.0771788
rclavicle -1.47101e-014 -3.65764e-014
rhumerus -26.6035 4.99942 -90.0157
rradius 39.0755
rwrist -4.55153
rhand -20.2744 -7.13502
rfingers 7.12502
rthumb 6.07487 -37.0279
lclavicle -1.47101e-014 -3.65764e-014
lhumerus -29.5028 -7.77232 86.7316
lradius 34.7819
lwrist 24.0679
lhand -20.5312 10.3498
lfingers 7.12502
lthumb 5.82694 40.2497
rfemur -40.158 1.34241 28.3764
rtibia 53.1629
rfoot -29.8102 -10.3569
rtoes 2.94664
lfemur -60.5535 4.93826 -23.8861
ltibia 27.4933
lfoot 23.1353 0.976836
ltoes 1.43797
682
root 21.6693 16.0399 -4.65309 184.689 -86.9775 -164.312
lowerback 33.096 -0.554084 0.793688
upperback 6.83568 -1.31163 -1.10399
thorax -9.45199 -0.923652 -1.05524
lowerneck 4.11807 0.77798 1.70978
upperneck -16.6548 1.11051 0.911757
head -5.69692 0.242012 -0.0525336
rclavicle -1.98785e-015 -1.82882e-014
rhumerus -26.5897 4.9552 -90.026
rradius 39.1434
rwrist -4.57087
rhand -20.2887 -7.09378
rfingers 7.12502
rthumb 6.06107 -36.9871
lclavicle -1.98785e-015 -1.82882e-014
lhumerus -29.5114 -7.85122 86.739
lradius 34.75
lwrist 24.0443
lhand -20.4991 10.3222
lfingers 7.12502
lthumb 5.85796 40.2212
rfemur -40.6809 1.28238 28.5008
rtibia 53.4359
rfoot -29.904 -10.6095
rtoes 3.68505
lfemur -60.8735 4.91591 -23.6615
ltibia 28.3288
lfoot 22.1189 0.806279
ltoes 0.0212778
683
root 21.7903 16.0244 -4.66423 184.285 -87.1648 -164.021
lowerback 33.1209 -0.63667 0.863221
upperback 6.85986 -1.39252 -1.09947
thorax -9.438 -0.962622 -1.05744
lowerneck 4.06455 0.754373 1.69104
upperneck -16.5246 1.08581 0.975687
head -5.6476 0.229765 -0.0276908
rclavicle 6.36111e-015 -8.74653e-015
rhumerus -26.5988 4.90921 -90.0278
rradius 39.2017
rwrist -4.57377
rhand -20.3083 -7.06145
rfingers 7.12502
rthumb 6.04218 -36.9553
lclavicle 6.36111e-015 -8.74653e-015
lhumerus -29.523 -7.91809 86.7485
lradius 34.7174
lwrist 24.0256
lhand -20.4579 10.3053
lfingers 7.12502
lthumb 5.89775 40.2032
rfemur -41.193 1.28023 28.6046
rtibia 53.7109
rfoot -29.9452 -10.8571
rtoes 4.31795
lfemur -61.2002 4.8956 -23.4071
ltibia 29.5124
lfoot 20.5854 0.472395
ltoes -1.5066
684
root 21.9094 16.0079 -4.67405 183.95 -87.3105 -163.795
lowerback 33.1451 -0.698245 0.923175
upperback 6.87821 -1.45046 -1.09795
thorax -9.42959 -0.990789 -1.06613
lowerneck 4.04956 0.729185 1.68533
upperneck -16.4499 1.05756 1.01789
head -5.62207 0.215241 -0.0117844
rclavicle 1.63003e-014 1.19271e-014
rhumerus -26.6302 4.86127 -90.0186
rradius 39.2419
rwrist -4.55543
rhand -20.3426 -6.9896
rfingers 7.12502
rthumb 6.00903 -36.8844
lclavicle 1.63003e-014 1.19271e-014
lhumerus -29.537 -7.96571 86.7589
lradius 34.668
lwrist 24.0009
lhand -20.4508 10.2192
lfingers 7.12502
lthumb 5.90463 40.1169
rfemur -41.731 1.3468 28.6742
rtibia 54.0389
rfoot -29.9342 -11.0949
rtoes 4.83798
lfemur -61.5808 4.89163 -23.145
ltibia 31.0596
lfoot 18.6435 -0.0501219
ltoes -3.18343
685
root 22.0265 15.9913 -4.68214 183.86 -87.4114 -163.811
lowerback 33.175 -0.740853 0.968074
upperback 6.88982 -1.49021 -1.10195
thorax -9.4303 -1.01029 -1.0792
lowerneck 4.04993 0.704902 1.67595
upperneck -16.4129 1.02843 1.04854
head -5.61091 0.200369 0.00110305
rclavicle -2.54444e-014 -3.18055e-014
rhumerus -26.682 4.82244 -90.0025
rradius 39.2636
rwrist -4.51276
rhand -20.3844 -6.8856
rfingers 7.12502
rthumb 5.96868 -36.7815
lclavicle -2.54444e-014 -3.18055e-014
lhumerus -29.5577 -7.98648 86.7682
lradius 34.6066
lwrist 23.9734
lhand -20.505 10.0548
lfingers 7.12502
lthumb 5.85227 39.954
rfemur -42.2684 1.466 28.7041
rtibia 54.364
rfoot -29.8413 -11.315
rtoes 5.26082
lfemur -61.9579 4.91535 -22.8943
ltibia 32.8457
lfoot 16.4311 -0.749814
ltoes -5.1214
686
root 22.1414 15.9758 -4.68835 184.109 -87.4669 -164.163
lowerback 33.2039 -0.763311 0.994941
upperback 6.89879 -1.51138 -1.10978
thorax -9.43291 -1.02098 -1.09354
lowerneck 4.0835 0.684225 1.67768
upperneck -16.4338 1.00127 1.04914
head -5.6233 0.186511 0.00252979
rclavicle 9.14409e-015 1.39149e-014
rhumerus -26.7442 4.802 -89.9744
rradius 39.2651
rwrist -4.45831
rhand -20.4449 -6.75085
rfingers 7.12502
rthumb 5.91034 -36.6484
lclavicle 9.14409e-015 1.39149e-014
lhumerus -29.582 -7.97849 86.7796
lradius 34.5348
lwrist 23.9428
lhand -20.6001 9.85851
lfingers 7.12502
lthumb 5.76043 39.7602
rfemur -42.809 1.61482 28.6992
rtibia 54.7054
rfoot -29.6957 -11.5011
rtoes 5.58347
lfemur -62.3593 4.97901 -22.6718
ltibia 34.9059
lfoot 14.0065 -1.55425
ltoes -7.28053
687
root 22.2548 15.9617 -4.69279 184.83 -87.4807 -164.983
lowerback 33.2382 -0.76784 0.995597
upperback 6.90194 -1.51936 -1.12233
thorax -9.4434 -1.02513 -1.1036
lowerneck 4.13378 0.67041 1.68232
upperneck -16.4946 0.979414 1.02026
head -5.6508 0.1762 -0.00611153
rclavicle 2.62396e-014 4.29375e-014
rhumerus -26.8145 4.79915 -89.9408
rradius 39.2486
rwrist -4.39226
rhand -20.5075 -6.62339
rfingers 7.12502
rthumb 5.84989 -36.5226
lclavicle 2.62396e-014 4.29375e-014
lhumerus -29.6128 -7.94045 86.7908
lradius 34.4649
lwrist 23.9272
lhand -20.6992 9.69645
lfingers 7.12502
lthumb 5.66474 39.6007
rfemur -43.3509 1.77985 28.6624
rtibia 55.0441
rfoot -29.5091 -11.6633
rtoes 5.8302
lfemur -62.7735 5.0877 -22.4964
ltibia 37.1795
lfoot 11.4701 -2.37574
ltoes -9.57421
